<?xml version="1.0" encoding="UTF-8"?>
<svg display="block" version="1.1" viewBox="0 0 512 512" xmlns="http://www.w3.org/2000/svg">
<path transform="translate(0)" d="m0 0h512v512h-512v-512z" fill="#111420"/>
<path transform="translate(132.69 162.56)" d="m0 0c1.572 0.013535 1.572 0.013535 3.1758 0.027344 16.325 0.36099 30.886 5.2817 44.305 14.613 14.715 11.61 23.739 26.318 29.832 43.797 6.4574 20.331 6.6075 46.237 0.69336 66.827-4.8024 15.05-12.629 27.882-23.693 39.173-0.66387 0.69996-1.3277 1.3999-2.0117 2.1211-9.1899 8.9798-21.389 14.24-33.849 16.847-16.295 2.8906-32.59 1.9568-48.026-4.1006-8.7433-4.0436-15.349-10.103-22.113-16.867l-1 92h-46v-248h46v18h2c0.22172-0.56074 0.44344-1.1215 0.67188-1.6992 4.8101-8.3329 15.275-13.714 23.613-17.828 8.8181-3.4957 16.923-5.0089 26.402-4.9102z" fill="#7353D5"/>
<path transform="translate(351.5 172.85)" d="m0 0c14.43 7.9162 26.651 18.645 34.877 32.974 4.0466 7.8986 5.625 13.133 5.625 22.172h-48l-6-9c-5.9947-5.8857-12.167-9.004-20.426-10.645-9.7877-1.3516-18.587-0.61577-27.574 3.6445-7.6659 4.6163-13.456 11.004-17.508 18.961-2.4682 5.5994-4.3307 10.879-4.4922 17.039-0.050273 1.0261-0.10055 2.0522-0.15234 3.1094-0.35364 12.731 1.7102 23.872 8.1328 34.973 4.465 6.4514 10.119 10.918 17.195 14.227 8.5785 3.2514 19.548 2.6929 28.426 1.0078 6.349-1.9769 12.507-4.7343 17.398-9.3164 2.7678-3.7956 4.9046-7.8092 7-12h46c0 9.6546-2.4871 18.482-7.457 26.816-3.1202 4.4157-6.8092 8.2869-10.543 12.184-0.81404 0.90879-0.81404 0.90879-1.6445 1.8359-11.63 12.543-27.346 20.398-43.73 24.656-17.366 3.3594-36.414 2.7707-52.938-3.8047-1.9068-0.87233-3.8032-1.7677-5.6875-2.6875-1.3671-0.62842-1.3671-0.62842-2.7617-1.2695-7.9473-3.934-14.043-9.5198-20.238-15.73-0.81727-0.80566-1.6345-1.6113-2.4766-2.4414-11.989-12.504-18.83-28.684-22.002-45.555-3.5765-21.47-1.7802-41.912 7.3425-61.896 7.8206-16.4 18.926-28.915 34.613-38.221 5.9926-3.2089 12.101-5.6772 18.523-7.8867 0.96551-0.3416 1.931-0.6832 2.9258-1.0352 21.589-6.2811 45.928-2.3571 65.572 7.8896z" fill="#7253D5"/>
<path transform="translate(145.19 210.12)" d="m0 0c8.493 4.5805 14.027 11.408 18.523 19.809 3.519 8.371 4.8175 15.864 4.7266 24.941-0.0075732 1.0585-0.015146 2.117-0.022949 3.2075-0.15973 7.5633-0.92519 14.101-4.4146 20.917-0.4473 0.88559-0.89461 1.7712-1.3555 2.6836-4.7361 8.5452-10.636 14.005-18.922 19.055-8.7685 4.0634-18.259 4.0996-27.723 3.2617-9.4692-1.6209-16.875-5.603-24-12-6.4674-6.7146-11.015-16.152-12.719-25.309-1.4055-13.45-0.79033-27.219 5.3438-39.504 4.6643-7.7739 10.341-13.393 18.375-17.625 14.18-6.4797 27.964-5.8107 42.188 0.5625z" fill="#111420"/>
<path transform="translate(468.77 291.67)" d="m0 0c4.747 2.8398 7.3508 6.7918 10.039 11.52 1.7973 4.2567 2.3116 7.692 2.301 12.315-1.133e-4 1.6513-1.133e-4 1.6513-2.2888e-4 3.3359-0.0051613 1.1824-0.010323 2.3648-0.01564 3.5831-0.001415 1.2151-0.0028299 2.4302-0.0042877 3.6822-0.0055986 3.882-0.018151 7.7639-0.030869 11.646-0.0050152 2.6315-0.009578 5.263-0.013672 7.8945-0.011027 6.4518-0.028291 12.904-0.048828 19.355h-20l-1-1-1-52-5-5h-12l-2.8125 2.0625c-0.52207 0.38285-1.0441 0.7657-1.582 1.1602-2.3602 2.6128-3.6096 5.4414-4.6055 8.7773-0.448 3.5821-0.48796 7.1389-0.51172 10.746-0.017951 1.0111-0.035902 2.0222-0.054398 3.064-0.053904 3.2091-0.087935 6.4181-0.12138 9.6274-0.033191 2.1843-0.067682 4.3685-0.10352 6.5527-0.087153 5.3366-0.14739 10.673-0.20898 16.01h-21v-75h21l1 7c0.47309-0.40992 0.94617-0.81984 1.4336-1.2422 9.788-7.9754 22.759-9.292 34.34-4.0898z" fill="#7253D4"/>
</svg>
